<svg width="406" height="125" viewBox="0 0 406 125" fill="none" xmlns="http://www.w3.org/2000/svg">
<path fill-rule="evenodd" clip-rule="evenodd" d="M59.5612 56.0218C69.4133 64.0525 75.6224 69.6895 74.8803 83.6991C73.7479 105.055 54.5779 117.697 31.4531 117.697C22.7169 117.697 4.14712 115.818 0 110.009L1.50928 94.4625C1.60932 92.5832 2.69223 91.5583 3.89072 91.5583C6.45863 91.5583 16.0058 98.904 30.9082 98.904C41.5285 98.904 48.5524 95.6588 49.0672 85.9203C49.2041 83.3571 48.2766 81.4778 43.8498 77.7192L27.7702 64.3935C16.6099 55.1674 10.7058 50.2134 11.5304 34.6665C12.689 12.7977 33.2382 3.23065 53.6222 3.23065C61.6736 3.23065 80.8844 5.9634 80.631 10.7479L79.1227 26.2948C79.0595 27.4902 78.1388 28.6866 76.7694 28.6866C73.5138 28.6866 68.7723 21.1694 53.3571 21.1694C44.2781 21.1694 37.7408 24.928 37.361 32.1033C37.0891 37.2297 40.3611 40.1339 43.9673 43.2086L59.5612 56.0218Z" fill="#72558F"/>
<path fill-rule="evenodd" clip-rule="evenodd" d="M98.9258 116.324C95.1002 116.324 94.6621 114.213 93.8366 109.01L83.7417 42.208C83.8 41.0833 84.9645 39.6767 86.0571 39.6767H102.725C103.681 39.6767 104.738 40.381 104.952 41.5047L107.543 68.2258C108.656 78.4932 108.904 94.9459 108.853 98.6028H109.126C109.65 96.3534 112.14 87.7735 115.026 79.4774L127.416 43.0517C128.048 41.3652 129.502 39.6767 131.003 39.6767H149.721C151.496 39.6767 152.776 41.3652 152.826 43.0517L154.609 72.1636C154.976 78.3518 155.21 89.7429 155.575 98.6028H155.848C157.683 92.1337 159.187 86.7893 164.763 71.3199L175.425 41.9271C175.901 40.6609 177.317 39.6767 178.546 39.6767H192.754C194.121 39.6767 194.639 40.2395 194.566 41.6452L165.911 110.135C164.358 113.791 163.544 116.324 159.72 116.324H144.692C141.277 116.324 139.961 115.339 139.632 108.447L138.437 81.164C137.951 72.0232 138.082 58.8031 138.27 55.1462H137.996C137.593 57.6784 135.6 64.5689 132.837 73.1478L120.901 108.729C119.319 112.948 118.325 116.324 113.818 116.324H98.9258Z" fill="#72558F"/>
<path fill-rule="evenodd" clip-rule="evenodd" d="M209.35 29.973C203.964 29.973 201.864 28.0036 202.391 24.4891L202.874 19.0033C203.46 14.5026 206.244 12.9556 211.472 12.9556H222.243C227.311 12.9556 229.596 14.5026 229.177 18.8628L228.527 24.4891C227.942 28.9888 224.399 29.973 219.171 29.973H209.35ZM202.461 41.927C202.569 40.098 203.862 39.6767 205.763 39.6767H222.395C224.454 39.6767 224.737 40.2395 224.635 41.927L215.931 113.651C215.831 115.339 214.98 116.323 213.396 116.323H196.763C193.755 116.323 193.662 115.199 193.754 113.651L202.461 41.927Z" fill="#72558F"/>
<path fill-rule="evenodd" clip-rule="evenodd" d="M319.992 70.9982C324.75 71.2617 346.527 71.8478 347.179 60.9332C347.43 56.7358 346.032 53.5235 339.062 52.9307C327.5 51.9474 321.783 62.2894 319.992 70.9982ZM359.213 112.585C358.911 117.623 343.879 118.736 330.099 117.563C305.864 115.504 295.637 105.493 297.028 82.2654C298.609 55.8204 319.308 37.1871 343.385 39.234C361.283 40.7558 367.834 48.3438 367.147 59.8183C365.656 84.7249 331.866 85.3682 318.402 84.2231C317.992 91.0797 320.564 101.283 337.832 102.751C349.394 103.734 356.632 99.8495 358.692 100.025C359.958 100.132 360.533 101.166 360.475 102.145L359.213 112.585Z" fill="#72558F"/>
<path fill-rule="evenodd" clip-rule="evenodd" d="M383.562 2.52835C383.671 0.474671 384.965 0 386.864 0H403.497C405.554 0 405.838 0.631603 405.737 2.52835L393.857 113.116C393.757 115.012 392.906 116.117 391.321 116.117H374.691C371.68 116.117 371.59 114.854 371.682 113.116L383.562 2.52835Z" fill="#72558F"/>
<path fill-rule="evenodd" clip-rule="evenodd" d="M258.021 96.923C256.702 90.4761 254.068 81.3344 253.346 77.4721L246.616 46.3307C246.365 45.2458 245.942 44.5328 243.566 45.5403L231.195 51.4872C229.769 52.0917 228.784 53.105 228.693 54.7828L244.466 119.71C245.599 124.441 245.955 126.375 251.659 123.955L260.234 120.317L258.021 96.923Z" fill="#72558F"/>
<path fill-rule="evenodd" clip-rule="evenodd" d="M306.277 19.6378L290.911 26.1553C289.644 26.693 288.319 28.2972 287.767 29.8713L269.367 77.5816C266.966 83.7107 263.584 90.9799 261.282 96.0696L263.448 118.955L265.281 118.177C270.509 115.959 271.576 113.421 274.07 107.45L309.161 20.6472C309.27 18.6652 308.178 18.8309 306.277 19.6378Z" fill="#72558F"/>
</svg>
